<svg version="1.1" id="Layer_1" xmlns="http://www.w3.org/2000/svg" xmlns:xlink="http://www.w3.org/1999/xlink" x="0px" y="0px"
	 width="100%" viewBox="0 0 1254 1254" enable-background="new 0 0 1254 1254" xml:space="preserve">
<path fill="#000000" opacity="1.000000" stroke="none" 
	d="
M1134.000000,1255.000000 
	C756.000000,1255.000000 378.500000,1255.000000 1.000000,1255.000000 
	C1.000000,837.000000 1.000000,419.000000 1.000000,1.000000 
	C419.000000,1.000000 837.000000,1.000000 1255.000000,1.000000 
	C1255.000000,419.000000 1255.000000,837.000000 1255.000000,1255.000000 
	C1214.833374,1255.000000 1174.666626,1255.000000 1134.000000,1255.000000 
M586.203247,548.940552 
	C588.918030,550.163879 591.632874,551.387146 594.378662,552.624390 
	C595.976013,551.468872 597.823608,550.132324 600.828125,547.958923 
	C600.828125,588.380432 600.828125,627.215088 600.828125,666.049744 
	C601.118164,666.047913 601.408203,666.046082 601.698242,666.044312 
	C601.698242,627.401184 601.698242,588.758057 601.698242,550.025391 
	C596.545410,549.753967 591.747742,549.394531 586.944519,549.289978 
	C584.260681,549.231567 581.802612,550.049194 581.786987,553.384705 
	C581.729675,565.646240 581.764221,577.908325 581.764221,588.932678 
	C583.083069,586.945007 584.514648,584.078003 586.592773,581.801086 
	C591.125488,576.834717 591.265015,576.567627 586.663086,571.775574 
	C581.947021,566.864624 580.696106,556.488831 584.779297,549.829651 
	C584.996277,549.597900 585.213318,549.366089 586.203247,548.940552 
M1038.046997,642.500000 
	C1038.046997,650.238220 1038.046997,657.976379 1038.046997,665.714600 
	C1038.277954,665.707458 1038.508789,665.700317 1038.739746,665.693176 
	C1038.739746,627.095947 1038.739746,588.498718 1038.739746,549.231384 
	C1033.301147,549.231384 1028.169800,549.276428 1023.039551,549.215088 
	C1019.767822,549.176025 1018.317261,550.264771 1018.460754,553.937683 
	C1018.791992,562.420044 1018.671814,570.921326 1018.676575,579.414917 
	C1018.692322,607.776184 1018.682556,636.137451 1018.682556,664.498718 
	C1018.432312,629.843445 1018.541565,595.187439 1018.373840,560.532837 
	C1018.313965,548.162781 1018.251404,547.907410 1030.552979,547.759460 
	C1037.455566,547.676453 1037.998657,548.166992 1038.005371,555.011658 
	C1038.033691,583.841125 1038.036865,612.670532 1038.046997,642.500000 
M717.729492,595.520996 
	C717.729492,618.781860 717.729492,642.042664 717.729492,665.762939 
	C722.200256,665.762939 726.927185,665.762939 731.654114,665.762939 
	C723.134216,671.494019 715.584900,667.540344 715.500244,658.176880 
	C715.488220,656.846680 715.670288,655.515686 715.686768,654.184143 
	C715.880066,638.549072 716.244629,622.913208 716.189270,607.278870 
	C716.134521,591.810303 715.517944,576.344238 715.401062,560.875183 
	C715.311646,549.034912 715.881897,548.616760 727.456604,548.091675 
	C727.955933,548.069092 728.453979,548.014587 728.953369,547.998108 
	C735.274597,547.789124 736.084961,548.562866 736.094666,555.041931 
	C736.113708,567.822937 736.100281,580.603943 736.100281,593.384949 
	C736.261169,593.382996 736.422058,593.381104 736.582947,593.379150 
	C736.582947,579.033142 736.582947,564.687195 736.582947,549.696533 
	C731.507996,549.450378 726.722351,549.090942 721.932983,549.030884 
	C718.747803,548.990906 717.154907,550.653320 717.220337,554.071228 
	C717.478333,567.548462 717.594727,581.028320 717.729492,595.520996 
M1173.871582,569.487915 
	C1173.520874,601.009338 1174.950562,632.559998 1172.446655,664.051819 
	C1170.282349,626.208252 1171.483276,588.384094 1171.224731,550.554749 
	C1172.107300,550.536987 1172.989990,550.519287 1173.872559,550.501587 
	C1173.872559,556.496338 1173.872559,562.491150 1173.871582,569.487915 
M179.499939,642.964294 
	C156.930435,642.964294 134.360947,642.964294 111.791443,642.964294 
	C111.792610,643.226501 111.793777,643.488647 111.794945,643.750854 
	C141.615952,643.750854 171.436966,643.750854 201.257980,643.750854 
	C201.262177,643.488464 201.266373,643.226074 201.270569,642.963684 
	C194.347015,642.963684 187.423447,642.963684 179.499939,642.964294 
M497.876007,633.499939 
	C497.876007,644.497742 497.876007,655.495605 497.876007,666.493408 
	C498.201019,666.488586 498.526062,666.483765 498.851074,666.478943 
	C498.851074,639.128296 498.851074,611.777649 498.851074,584.427002 
	C498.525543,584.424622 498.200012,584.422241 497.874481,584.419861 
	C497.874481,600.446533 497.874481,616.473206 497.876007,633.499939 
M479.349060,591.849792 
	C479.349060,615.976196 479.349060,640.102600 479.349060,664.229004 
	C478.939972,664.223572 478.530853,664.218140 478.121765,664.212708 
	C478.121765,638.185425 478.121765,612.158081 478.121765,586.130798 
	C478.549683,586.130249 478.977631,586.129700 479.405548,586.129150 
	C479.405548,587.744995 479.405548,589.360779 479.349060,591.849792 
M222.498520,700.520569 
	C214.034988,700.520569 205.571472,700.520569 197.107941,700.520569 
	C197.107910,700.452881 197.107864,700.385254 197.107834,700.317566 
	C222.104874,700.317566 247.101913,700.317566 272.098969,700.317566 
	C272.098938,700.395386 272.098938,700.473206 272.098907,700.551025 
	C255.898468,700.551025 239.698029,700.551025 222.498520,700.520569 
M196.499664,664.868103 
	C186.268570,664.868103 176.037476,664.868103 165.806366,664.868103 
	C165.813812,665.091675 165.821274,665.315308 165.828720,665.538879 
	C183.113571,665.538879 200.398438,665.538879 217.683289,665.538879 
	C217.677994,665.314819 217.672684,665.090820 217.667374,664.866760 
	C210.944656,664.866760 204.221939,664.866760 196.499664,664.868103 
M175.550690,677.905029 
	C188.314606,677.905029 201.078537,677.905029 213.842453,677.905029 
	C213.843292,677.743469 213.844131,677.581848 213.844971,677.420288 
	C197.937271,677.420288 182.029587,677.420288 166.121902,677.420288 
	C166.120865,677.583374 166.119827,677.746521 166.118790,677.909607 
	C168.938019,677.909607 171.757248,677.909607 175.550690,677.905029 
M922.003540,627.499634 
	C922.003540,633.956726 922.003540,640.413818 922.003540,646.870911 
	C922.269958,646.862610 922.536438,646.854370 922.802856,646.846069 
	C922.802856,631.952698 922.802856,617.059326 922.802856,602.166016 
	C922.539124,602.164429 922.275330,602.162903 922.011597,602.161316 
	C922.011597,610.274170 922.011597,618.386963 922.003540,627.499634 
M942.586182,622.498901 
	C942.586182,616.096924 942.586182,609.695007 942.586182,603.293030 
	C942.526245,603.293152 942.466248,603.293274 942.406311,603.293335 
	C942.406311,609.418030 942.406372,615.542664 942.406372,621.667297 
	C942.406372,627.742249 942.406311,633.817139 942.406311,639.892090 
	C942.463196,639.892029 942.520020,639.892029 942.576904,639.892029 
	C942.576904,634.427307 942.576904,628.962646 942.586182,622.498901 
M942.444031,572.304810 
	C942.444031,574.413574 942.444031,576.522339 942.444031,578.631104 
	C942.466797,578.630859 942.489563,578.630554 942.512329,578.630310 
	C942.512329,572.580017 942.512329,566.529785 942.512329,560.479553 
	C942.494446,560.480652 942.476501,560.481689 942.458618,560.482788 
	C942.458618,564.114441 942.458618,567.746094 942.444031,572.304810 
M923.010254,575.097351 
	C923.010254,569.717041 923.010254,564.336731 923.010254,558.956421 
	C922.766541,558.970337 922.522766,558.984253 922.279053,558.998169 
	C922.279053,565.950073 922.279053,572.901978 922.279053,579.853821 
	C922.523254,579.850952 922.767395,579.848083 923.011597,579.845154 
	C923.011597,578.546875 923.011597,577.248596 923.010254,575.097351 
M192.141739,699.037231 
	C192.236435,699.306946 192.331131,699.576599 192.425827,699.846313 
	C192.564072,699.764526 192.829742,699.657532 192.819382,699.605164 
	C192.762436,699.317261 192.637955,699.042664 192.141739,699.037231 
M580.187683,594.486145 
	C580.400269,594.500732 580.612854,594.515381 580.825439,594.530029 
	C580.726562,594.417664 580.627625,594.305298 580.187683,594.486145 
z"/>
<path fill="#4B494A" opacity="1.000000" stroke="none" 
	d="
M584.097534,550.494873 
	C580.696106,556.488831 581.947021,566.864624 586.663086,571.775574 
	C591.265015,576.567627 591.125488,576.834717 586.592773,581.801086 
	C584.514648,584.078003 583.083069,586.945007 581.764221,588.932678 
	C581.764221,577.908325 581.729675,565.646240 581.786987,553.384705 
	C581.802612,550.049194 584.260681,549.231567 586.944519,549.289978 
	C591.747742,549.394531 596.545410,549.753967 601.698242,550.025391 
	C601.698242,588.758057 601.698242,627.401184 601.698242,666.044312 
	C601.408203,666.046082 601.118164,666.047913 600.828125,666.049744 
	C600.828125,627.215088 600.828125,588.380432 600.828125,547.958923 
	C597.823608,550.132324 595.976013,551.468872 594.378662,552.624390 
	C591.632874,551.387146 588.918030,550.163879 585.556580,548.962036 
	C584.639099,549.487305 584.368347,549.991089 584.097534,550.494873 
M582.328125,549.529968 
	C582.328125,549.529968 582.632629,549.697083 582.632629,549.697083 
	C582.632629,549.697083 582.582764,549.352234 582.328125,549.529968 
z"/>
<path fill="#4B494A" opacity="1.000000" stroke="none" 
	d="
M1038.048096,642.000000 
	C1038.036865,612.670532 1038.033691,583.841125 1038.005371,555.011658 
	C1037.998657,548.166992 1037.455566,547.676453 1030.552979,547.759460 
	C1018.251404,547.907410 1018.313965,548.162781 1018.373840,560.532837 
	C1018.541565,595.187439 1018.432312,629.843445 1018.682556,664.498718 
	C1018.682556,636.137451 1018.692322,607.776184 1018.676575,579.414917 
	C1018.671814,570.921326 1018.791992,562.420044 1018.460754,553.937683 
	C1018.317261,550.264771 1019.767822,549.176025 1023.039551,549.215088 
	C1028.169800,549.276428 1033.301147,549.231384 1038.739746,549.231384 
	C1038.739746,588.498718 1038.739746,627.095947 1038.739746,665.693176 
	C1038.508789,665.700317 1038.277954,665.707458 1038.046997,665.714600 
	C1038.046997,657.976379 1038.046997,650.238220 1038.048096,642.000000 
z"/>
<path fill="#4B494A" opacity="1.000000" stroke="none" 
	d="
M717.746582,595.014099 
	C717.594727,581.028320 717.478333,567.548462 717.220337,554.071228 
	C717.154907,550.653320 718.747803,548.990906 721.932983,549.030884 
	C726.722351,549.090942 731.507996,549.450378 736.582947,549.696533 
	C736.582947,564.687195 736.582947,579.033142 736.582947,593.379150 
	C736.422058,593.381104 736.261169,593.382996 736.100281,593.384949 
	C736.100281,580.603943 736.113708,567.822937 736.094666,555.041931 
	C736.084961,548.562866 735.274597,547.789124 728.953369,547.998108 
	C728.453979,548.014587 727.955933,548.069092 727.456604,548.091675 
	C715.881897,548.616760 715.311646,549.034912 715.401062,560.875183 
	C715.517944,576.344238 716.134521,591.810303 716.189270,607.278870 
	C716.244629,622.913208 715.880066,638.549072 715.686768,654.184143 
	C715.670288,655.515686 715.488220,656.846680 715.500244,658.176880 
	C715.584900,667.540344 723.134216,671.494019 731.654114,665.762939 
	C726.927185,665.762939 722.200256,665.762939 717.729492,665.762939 
	C717.729492,642.042664 717.729492,618.781860 717.746582,595.014099 
z"/>
<path fill="#4B494A" opacity="1.000000" stroke="none" 
	d="
M1173.872070,568.986938 
	C1173.872559,562.491150 1173.872559,556.496338 1173.872559,550.501587 
	C1172.989990,550.519287 1172.107300,550.536987 1171.224731,550.554749 
	C1171.483276,588.384094 1170.282349,626.208252 1172.446655,664.051819 
	C1174.950562,632.559998 1173.520874,601.009338 1173.872070,568.986938 
z"/>
<path fill="#4B494A" opacity="1.000000" stroke="none" 
	d="
M179.999908,642.963989 
	C187.423447,642.963684 194.347015,642.963684 201.270569,642.963684 
	C201.266373,643.226074 201.262177,643.488464 201.257980,643.750854 
	C171.436966,643.750854 141.615952,643.750854 111.794945,643.750854 
	C111.793777,643.488647 111.792610,643.226501 111.791443,642.964294 
	C134.360947,642.964294 156.930435,642.964294 179.999908,642.963989 
z"/>
<path fill="#4B494A" opacity="1.000000" stroke="none" 
	d="
M497.875244,632.999878 
	C497.874481,616.473206 497.874481,600.446533 497.874481,584.419861 
	C498.200012,584.422241 498.525543,584.424622 498.851074,584.427002 
	C498.851074,611.777649 498.851074,639.128296 498.851074,666.478943 
	C498.526062,666.483765 498.201019,666.488586 497.876007,666.493408 
	C497.876007,655.495605 497.876007,644.497742 497.875244,632.999878 
z"/>
<path fill="#4B494A" opacity="1.000000" stroke="none" 
	d="
M479.377319,591.413208 
	C479.405548,589.360779 479.405548,587.744995 479.405548,586.129150 
	C478.977631,586.129700 478.549683,586.130249 478.121765,586.130798 
	C478.121765,612.158081 478.121765,638.185425 478.121765,664.212708 
	C478.530853,664.218140 478.939972,664.223572 479.349060,664.229004 
	C479.349060,640.102600 479.349060,615.976196 479.377319,591.413208 
z"/>
<path fill="#4B494A" opacity="1.000000" stroke="none" 
	d="
M222.998047,700.535767 
	C239.698029,700.551025 255.898468,700.551025 272.098907,700.551025 
	C272.098938,700.473206 272.098938,700.395386 272.098969,700.317566 
	C247.101913,700.317566 222.104874,700.317566 197.107834,700.317566 
	C197.107864,700.385254 197.107910,700.452881 197.107941,700.520569 
	C205.571472,700.520569 214.034988,700.520569 222.998047,700.535767 
z"/>
<path fill="#4B494A" opacity="1.000000" stroke="none" 
	d="
M196.999451,664.867432 
	C204.221939,664.866760 210.944656,664.866760 217.667374,664.866760 
	C217.672684,665.090820 217.677994,665.314819 217.683289,665.538879 
	C200.398438,665.538879 183.113571,665.538879 165.828720,665.538879 
	C165.821274,665.315308 165.813812,665.091675 165.806366,664.868103 
	C176.037476,664.868103 186.268570,664.868103 196.999451,664.867432 
z"/>
<path fill="#4B494A" opacity="1.000000" stroke="none" 
	d="
M175.063583,677.907349 
	C171.757248,677.909607 168.938019,677.909607 166.118790,677.909607 
	C166.119827,677.746521 166.120865,677.583374 166.121902,677.420288 
	C182.029587,677.420288 197.937271,677.420288 213.844971,677.420288 
	C213.844131,677.581848 213.843292,677.743469 213.842453,677.905029 
	C201.078537,677.905029 188.314606,677.905029 175.063583,677.907349 
z"/>
<path fill="#4B494A" opacity="1.000000" stroke="none" 
	d="
M922.007568,626.999756 
	C922.011597,618.386963 922.011597,610.274170 922.011597,602.161316 
	C922.275330,602.162903 922.539124,602.164429 922.802856,602.166016 
	C922.802856,617.059326 922.802856,631.952698 922.802856,646.846069 
	C922.536438,646.854370 922.269958,646.862610 922.003540,646.870911 
	C922.003540,640.413818 922.003540,633.956726 922.007568,626.999756 
z"/>
<path fill="#4B494A" opacity="1.000000" stroke="none" 
	d="
M942.581543,622.998413 
	C942.576904,628.962646 942.576904,634.427307 942.576904,639.892029 
	C942.520020,639.892029 942.463196,639.892029 942.406311,639.892090 
	C942.406311,633.817139 942.406372,627.742249 942.406372,621.667297 
	C942.406372,615.542664 942.406311,609.418030 942.406311,603.293335 
	C942.466248,603.293274 942.526245,603.293152 942.586182,603.293030 
	C942.586182,609.695007 942.586182,616.096924 942.581543,622.998413 
z"/>
<path fill="#4B494A" opacity="1.000000" stroke="none" 
	d="
M942.451294,571.841309 
	C942.458618,567.746094 942.458618,564.114441 942.458618,560.482788 
	C942.476501,560.481689 942.494446,560.480652 942.512329,560.479553 
	C942.512329,566.529785 942.512329,572.580017 942.512329,578.630310 
	C942.489563,578.630554 942.466797,578.630859 942.444031,578.631104 
	C942.444031,576.522339 942.444031,574.413574 942.451294,571.841309 
z"/>
<path fill="#4B494A" opacity="1.000000" stroke="none" 
	d="
M923.010925,575.523804 
	C923.011597,577.248596 923.011597,578.546875 923.011597,579.845154 
	C922.767395,579.848083 922.523254,579.850952 922.279053,579.853821 
	C922.279053,572.901978 922.279053,565.950073 922.279053,558.998169 
	C922.522766,558.984253 922.766541,558.970337 923.010254,558.956421 
	C923.010254,564.336731 923.010254,569.717041 923.010925,575.523804 
z"/>
<path fill="#4B494A" opacity="1.000000" stroke="none" 
	d="
M192.339203,698.900391 
	C192.637955,699.042664 192.762436,699.317261 192.819382,699.605164 
	C192.829742,699.657532 192.564072,699.764526 192.425827,699.846313 
	C192.331131,699.576599 192.236435,699.306946 192.339203,698.900391 
z"/>
<path fill="#4B494A" opacity="1.000000" stroke="none" 
	d="
M580.358215,594.339539 
	C580.627625,594.305298 580.726562,594.417664 580.825439,594.530029 
	C580.612854,594.515381 580.400269,594.500732 580.358215,594.339539 
z"/>
<path fill="#000000" opacity="1.000000" stroke="none" 
	d="
M584.438477,550.162231 
	C584.368347,549.991089 584.639099,549.487305 585.170166,549.058838 
	C585.213318,549.366089 584.996277,549.597900 584.438477,550.162231 
z"/>
<path fill="#000000" opacity="1.000000" stroke="none" 
	d="
M582.455444,549.441101 
	C582.582764,549.352234 582.632629,549.697083 582.632629,549.697083 
	C582.632629,549.697083 582.328125,549.529968 582.455444,549.441101 
z"/>
</svg>